<?xml version="1.0" standalone="no"?>
<!DOCTYPE svg PUBLIC "-//W3C//DTD SVG 1.1//EN" "http://www.w3.org/Graphics/SVG/1.1/DTD/svg11.dtd" >
<svg xmlns="http://www.w3.org/2000/svg">
<metadata></metadata>
<defs>
<font id="SocialicoRegular" horiz-adv-x="1630" >
<font-face units-per-em="2048" ascent="1536" descent="-512" />
<missing-glyph horiz-adv-x="500" />
<glyph horiz-adv-x="0" />
<glyph horiz-adv-x="2048" />
<glyph unicode="&#xd;" />
<glyph unicode=" " d="M96 729q0 150 56.5 281t155 228t229 153.5t280.5 56.5t281 -56.5t228 -153.5t153.5 -228t56.5 -281t-56.5 -281t-153.5 -229t-228 -154.5t-281 -56.5t-280.5 56.5t-229 154.5t-155 229.5t-56.5 280.5z" />
<glyph unicode="!" d="M96 719q0 150 56.5 280.5t155 229t229.5 155t280 56.5q150 0 281 -56.5t228 -155t153.5 -229.5t56.5 -280q0 -150 -56.5 -281t-153.5 -228t-228 -153.5t-281 -56.5t-280.5 56.5t-229 153.5t-155 228t-56.5 281zM303 616.5q0 -49.5 41 -86.5v172q-41 -36 -41 -85.5z M387 508q16 -4 33 -4h10v225q-4 2 -15.5 2t-27.5 -4v-219zM473 504h43v284q-27 -37 -35 -75l-8 4v-213zM559 504h43v346q-23 -6 -43 -21v-325zM645 504h43v354l-26 2q-10 0 -17 -2v-354zM711 504h63v356l-18 -26q-20 10 -45 18v-348zM797 504h407v2q66 4 95.5 39t29.5 85 t-33.5 86t-72 36t-64.5 -11q-10 82 -71.5 137.5t-147.5 55.5t-143 -53v-377z" />
<glyph unicode="$" horiz-adv-x="1628" d="M96 717q0 150 56.5 280.5t153.5 228t228 154t281 56.5t281 -56.5t228 -154t153.5 -228.5t56.5 -280q0 -150 -56.5 -281t-153.5 -229t-228 -154.5t-281 -56.5t-281 56.5t-228 154.5t-153.5 229t-56.5 281zM401 553h56v170q0 112 84 115q59 0 59 -74v-211h57v188 q0 53 25 75t57 22q60 0 60 -80v-205h55v223q0 109 -102 109q-66 0 -105 -56q-20 54 -94 56q-49 0 -83 -32l-19 -19v45h-50v-326zM920 715q0 -82 43 -125t110 -43q129 0 154 104l-58 6q-16 -37 -36.5 -51t-58.5 -14t-65.5 29t-29.5 81h250v15q0 78 -42 123t-111 45t-111 -45 q-45 -43 -45 -125zM983 748q0 43 27.5 67.5t69.5 24.5t64.5 -27t24.5 -65h-186z" />
<glyph unicode="&#x26;" horiz-adv-x="1628" d="M96 717q0 150 56.5 280.5t153.5 228t228 154t281 56.5t281 -56.5t228 -154t153.5 -228.5t56.5 -280q0 -150 -56.5 -281t-153.5 -229t-228 -154.5t-281 -56.5t-281 56.5t-228 154.5t-153.5 229t-56.5 281zM512 807q0 -134 104 -174q32 32 15 71q-8 17 -18.5 34.5t-14.5 57 t23.5 94t76.5 88.5q116 79 234 9q43 -25 61.5 -85t12 -123.5t-35.5 -116.5q-46 -80 -126 -61q-21 5 -38.5 22.5t-13 48t16.5 65.5t22.5 71t-3 68t-35 37t-43.5 -5q-53 -25 -62 -83q-4 -29 4 -54.5t8 -52t-7 -59t-17 -66.5t-20.5 -66.5t-14.5 -58.5q-13 -84 -2 -126h49 q37 61 76 227q10 6 14 -5t20 -22q39 -28 112 -17q143 22 190 178q43 147 -10 240q-70 125 -213 144q-149 17 -253 -62q-112 -84 -112 -218z" />
<glyph unicode="(" horiz-adv-x="1628" d="M96 721q0 150 56.5 281t153.5 229t228.5 154.5t280.5 56.5q150 0 281 -56.5t228 -154.5t153.5 -229.5t56.5 -280.5q0 -150 -56.5 -281t-153.5 -228t-228 -153.5t-281 -56.5t-281 56.5t-228 153.5t-153.5 228t-56.5 281zM465 721q0 -146 102 -248t248 -102q143 0 247 102 q103 101 103 248t-103 248q-104 102 -247 102q-146 0 -248 -102t-102 -248zM535 721q0 117 81.5 198.5t198.5 81.5q118 0 198 -81q83 -85 83 -199q0 -115 -83 -198q-81 -81 -199 -81q-58 0 -108.5 21.5t-89.5 59.5q-81 80 -81 198zM676 686l139 -139l139 139h-69v211h-140 v-211h-69z" />
<glyph unicode=")" d="M96 719q0 150 56.5 280.5t153.5 228t228.5 154t280.5 56.5q150 0 281 -56.5t229 -154t154.5 -228.5t56.5 -280q0 -150 -56.5 -281t-154.5 -228t-229 -153.5t-281 -56.5t-281 56.5t-228 153.5t-153.5 228t-56.5 281zM346 764h154v-287q0 -14 10 -24.5t25 -10.5h350 l-109 111h-166v211h154l-209 229zM748 995l108 -110h166v-211h-156l211 -230l209 230h-153v287q0 14 -10.5 24t-24.5 10h-350z" />
<glyph unicode="," d="M96 713q0 150 56.5 280.5t153.5 229t228.5 155t280.5 56.5q150 0 281 -56.5t229 -155t154.5 -229.5t56.5 -280q0 -150 -56.5 -281t-154.5 -228.5t-229 -153.5t-281 -56t-281 56t-228 153.5t-153.5 228.5t-56.5 281zM465 762q10 -26 55 -33l166 21q2 16 19 34l-103 74 l-31 12q-33 8 -63 -10q-16 -6 -28 -18q-39 -43 -15 -80zM506 594l2 -12q8 -14 37 -17.5t61 10.5l43 35l21 20q10 11 22 21l-4 8l-6 23l-92 -16q-8 -2 -16.5 -6.5t-18.5 -8.5q-41 -18 -49 -57zM618 432q0 -23 11 -39q12 -29 45 -38t65.5 6t44.5 49v57q-4 35 -6 65.5t-4 59.5 q-10 2 -18 6t-19 8l-96 -114q-8 -8 -11 -16.5t-7 -16.5zM635 1006q-6 -25 18 -74l103 -111l16 6l-22 136q-2 10 -6.5 18t-8.5 18q-20 39 -44.5 47.5t-33.5 0.5q-22 -12 -22 -41zM723 703.5q0 -31.5 25 -52.5q18 -23 51 -22.5t55.5 21.5t22.5 54t-21.5 54.5t-54.5 21.5 t-55.5 -22.5t-22.5 -54zM827 592l17 -98l14 -39q18 -41 51 -52q18 0 27 7q19 7 23 39q4 28 -19 73l-31 37l-47 49l-16 -8zM829 997l2 -47l11 -129q16 -8 35 -20l102 127q10 18 16 35l4 24q0 21 -12 46.5t-49 31.5q-33 12 -67 -6t-42 -62zM901 647l121 -98q12 -16 33 -19 q33 -12 63 5q31 14 39 51l4 22q0 31 -18 49q-14 29 -53 35l-46 -2l-131 -10l-4 -14zM905 762l4 -12l142 16q26 5 39 10q48 22 55 62l-4 14q-10 23 -42 27t-59 -11l-14 -4l-117 -98z" />
<glyph unicode="-" d="M96 719q0 150 56.5 280.5t153.5 228t228 154t281 56.5t281 -56.5t229 -154t154.5 -228.5t56.5 -280q0 -150 -56.5 -281t-154.5 -229t-229 -154.5t-281 -56.5t-281 56.5t-228 154.5t-153.5 229t-56.5 281zM501 824.5q-9 -19.5 15 -48.5h2l119 -145l-62 -176 q-10 -35 4.5 -48.5t47.5 3.5l188 94l189 -94q35 -16 49 -3t2 48l-60 176l119 145h2q23 29 13.5 48.5t-46.5 19.5h-155l-76 157q-16 35 -36.5 35t-37.5 -35l-73 -157h-158q-37 0 -46 -19.5z" />
<glyph unicode="." d="M96 717q0 150 56.5 280.5t153.5 229t228.5 155t280.5 56.5q150 0 281 -56.5t229 -155t154.5 -229.5t56.5 -280q0 -150 -56.5 -281t-154.5 -228t-229 -153.5t-281 -56.5t-281 56.5t-228 153.5t-153.5 228t-56.5 281zM485 717q0 -132 98 -232q94 -96 232 -96t234 96t96 232 q0 137 -96 233q-97 97 -234 97t-232 -97q-98 -100 -98 -233zM553 717q0 110 77 187t185 77q112 0 187 -77q77 -78 77 -187t-76.5 -185.5t-187.5 -76.5q-107 0 -185 77q-77 75 -77 185zM674 596.5q2 -21.5 17.5 -34.5t37 -9t34.5 19.5t11 37.5v174l133 25v-139q-8 4 -27.5 2 t-32.5 -17.5t-11 -38.5t17 -35t37 -9t35 19.5t11 37.5v254l-191 -33v-199q-8 4 -27.5 2t-32.5 -18.5t-11 -38z" />
<glyph unicode="/" d="M96 717q0 150 56.5 280.5t153.5 228t228 154t281 56.5t281 -56.5t229 -154t154.5 -228.5t56.5 -280q0 -150 -56.5 -281t-154.5 -229t-229 -154.5t-281 -56.5t-281 56.5t-228 154.5t-153.5 229t-56.5 281zM434 721q0 -63 44 -108.5t108 -45.5q25 0 51 11l147 -136l414 334 v205q0 2 -1 4t-1 4l-405 -430l-64 107q10 27 10 55q0 63 -44 107t-107 44t-107.5 -44t-44.5 -107z" />
<glyph unicode="0" d="M96 725q0 150 56.5 281t153.5 228t228.5 153.5t280.5 56.5q150 0 281 -56.5t229 -153.5t154.5 -228.5t56.5 -280.5q0 -150 -56.5 -281t-154.5 -229t-229 -154.5t-281 -56.5t-281 56.5t-228 154.5t-153.5 229t-56.5 281zM455 502q63 25 122.5 24.5t127.5 -43.5 q43 142 65 226q-62 41 -123 41h-12q-44 -3 -74 -14t-43 -15zM541 799q66 27 126 26.5t121 -43.5l66 224q-65 39 -123.5 40t-128.5 -28zM764 449q14 -10 54 -28t73 -18q61 0 137 31l62 211q-61 -18 -133 -18t-130 43zM848 741q63 -43 130.5 -43t131.5 29v2h4l62 217 q-62 -24 -133.5 -24t-129.5 43z" />
<glyph unicode="1" d="M96 725q0 150 56.5 281t155 228t229.5 153.5t280 56.5q150 0 281 -56.5t228 -153.5t153.5 -228.5t56.5 -280.5q0 -150 -56.5 -281t-153.5 -229t-228 -154.5t-281 -56.5t-280.5 56.5t-229 154.5t-155 229t-56.5 281zM477 623h238v-236h203v236h237v202h-237v238h-203v-238 h-238v-202z" />
<glyph unicode="2" d="M96 715.5q0 148.5 56.5 279.5t152.5 228.5t226.5 154t277.5 58.5h14q147 -2 277.5 -58.5t227.5 -154t152.5 -228.5t55.5 -279.5t-56.5 -279.5t-153.5 -228t-228 -153.5t-281 -56.5t-280.5 56.5t-229 153.5t-155 228t-56.5 279.5zM453 733q0 -51 35.5 -87t83.5 -36t83 29 l248 -125v-6q0 -51 36 -87t87 -36t87 36t36 87t-36 87t-81 36t-86 -29l-248 123v14l248 125q35 -29 83 -28.5t84 35t36 86.5t-36 87t-87 35t-87 -34.5t-36 -86.5v-8l-248 -125q-37 31 -84 31t-82.5 -36t-35.5 -87z" />
<glyph unicode="3" horiz-adv-x="1628" d="M96 719q0 150 56.5 280.5t153.5 229t228.5 155t280.5 56.5q150 0 281 -56.5t228 -155t153.5 -229.5t56.5 -280q0 -150 -56.5 -281t-153.5 -228t-228 -153.5t-281 -56.5t-281 56.5t-228 153.5t-153.5 228t-56.5 281zM420 795.5q16 -60.5 52 -120t86 -114.5t102 -97 q114 -93 167 -93q55 0 161 93q184 161 224 332q15 60 -7 129.5t-79 106.5t-114 37t-92 -20.5t-56.5 -46t-33 -46t-15.5 -20.5t-14 20.5t-31 45.5q-57 67 -131.5 67t-133 -37t-80 -106.5t-5.5 -130z" />
<glyph unicode="4" horiz-adv-x="1628" d="M96 713.5q0 148.5 55.5 279.5t152.5 229q207 208 503 212h16q147 -2 276.5 -58.5t226.5 -154t152.5 -228.5t55.5 -279.5t-56.5 -279.5t-153.5 -228t-228 -153.5t-281 -56.5t-281 56.5t-228 153.5t-153.5 228t-56.5 279.5zM467 723q0 -47 12 -90l309 280l-131 119 q-90 -45 -140 -128t-50 -181zM492 594q45 -109 145 -168v299zM672 406q57 -27 110 -29h66q90 8 164.5 59t115.5 135h-456v-165zM694 1049q2 -2 21.5 -19.5t48.5 -44.5t61.5 -56.5t61 -55t48 -45t23.5 -21.5v233q-67 31 -134.5 31t-129.5 -22zM995 608h150q18 55 18 131 t-45 155t-123 126v-412z" />
<glyph unicode="5" d="M96 723q0 150 56.5 281t153.5 229t228.5 154.5t280.5 56.5q150 0 281 -56.5t229 -154.5t154.5 -229.5t56.5 -280.5q0 -150 -56.5 -281t-154.5 -228t-229 -153.5t-281 -56.5t-281 56.5t-228 153.5t-153.5 228t-56.5 281zM414 410l225 67v-92h330l-97 291h158 q82 0 139.5 57.5t57.5 138.5q0 82 -57.5 139.5t-135.5 57.5t-133 -48t-65 -120h-7q-10 72 -65 120t-133 48t-134.5 -57.5t-56.5 -139.5q0 -78 56 -136q58 -60 137 -60h6v-66l-225 60v-260zM580 872q0 23 16 39.5t39 16.5t39 -16.5t16 -39.5t-16.5 -39t-38.5 -16 q-23 0 -39 16.5t-16 38.5zM979 872q0 23 16.5 39.5t38.5 16.5q23 0 39.5 -16.5t16.5 -39.5t-16.5 -39t-39.5 -16t-39 16.5t-16 38.5z" />
<glyph unicode="6" d="M96 717q0 150 56.5 280.5t155 229t229.5 155t280 56.5q150 0 281 -56.5t228 -155t153.5 -229.5t56.5 -280q0 -150 -56.5 -281t-153.5 -228t-228 -153.5t-281 -56.5t-280.5 56.5t-229 153.5t-155 228t-56.5 281zM322 717q0 -122 84 -208q86 -87 210 -87q138 0 228 108 l-37 88q-29 -53 -79 -83.5t-103.5 -30.5t-92 16.5t-68.5 45.5q-63 62 -63 151q0 138 131 197q39 18 94.5 18t110 -35t76.5 -92l105 -240q29 -66 73.5 -102.5t126.5 -36.5t138.5 48t56.5 122t-37 108.5t-90.5 52t-77 26t-40.5 17.5q-38 20 -38 56.5t22.5 58t64.5 21.5t77 -47 l63 33q-49 86 -133 86t-127 -41t-43 -110t44 -103.5t111.5 -57t95.5 -39t28 -57.5t-35 -70.5t-89 -26.5t-78.5 30.5t-43 68.5t-35 80t-30 70.5t-22.5 53.5q-46 110 -119 159t-149.5 49t-131 -23.5t-94.5 -63.5q-84 -86 -84 -210z" />
<glyph unicode="7" d="M96 711q0 150 56.5 280.5t155 229t229.5 155t280 56.5q150 0 281 -56.5t228 -155t153.5 -229.5t56.5 -280q0 -150 -56.5 -281t-153.5 -228.5t-228 -153.5t-281 -56t-280.5 56t-229 153.5t-155 228.5t-56.5 281zM565 815.5q0 -98.5 58.5 -168t146.5 -88.5l51 -203l51 203 q86 18 144.5 88t58.5 162q0 103 -75 179q-73 75 -180 75q-52 0 -98 -20.5t-81 -54.5q-76 -74 -76 -172.5zM631 809q0 123 115 175q34 15 74 15t75 -15t61 -40q56 -57 56 -135q0 -77 -56 -135q-54 -56 -134.5 -56t-135.5 55.5t-55 135.5zM715 808q0 -44 30.5 -75t74.5 -31 t75 31t31 75t-31 74.5t-75 30.5t-74.5 -30.5t-30.5 -74.5z" />
<glyph unicode="8" d="M96 721q0 150 56.5 281t155 228t229 153.5t280.5 56.5t281 -56.5t228 -153.5t153.5 -228.5t56.5 -280.5q0 -150 -56.5 -281t-153.5 -229t-228 -154.5t-281 -56.5t-280.5 56.5t-229 154.5t-155 229t-56.5 281zM530 641q44 -156 140 -219q59 -39 145 -45q167 7 239 130 q52 87 49 221q-1 48 -7 78l-4 23q2 -12 -2 -23q-11 -27 -23 -44q-16 134 -236 301q-3 -34 -81 -105q-102 -92 -129.5 -131t-37.5 -71.5t-14 -60t-5 -46t-5 -20.5q-11 -3 -29 12z" />
<glyph unicode="9" d="M96 719q0 150 56.5 280.5t155 228t229.5 154t280 56.5q150 0 281 -56.5t228 -154t153.5 -228.5t56.5 -280q0 -150 -56.5 -281t-153.5 -229t-228 -154.5t-281 -56.5t-280.5 56.5t-229 154.5t-155 229t-56.5 281zM385 685q-4 -60 34 -98q48 -48 125 -28q21 6 31.5 16.5 t20.5 16.5q-29 -115 37 -115h47q6 33 10 63.5t8 60.5t10.5 59.5t10.5 76.5t-28 80t-89 37q-102 7 -170 -59q-43 -50 -47 -110zM495 668q-7 38 7 65t23 35t25 10q31 4 44.5 -6t17.5 -27.5t1 -36.5q-7 -47 -31 -63q-10 -8 -32 -11q-48 -7 -55 34zM748 583q19 -23 92 -18 q11 57 21.5 131t13 91.5t-6.5 27.5q-10 18 -35.5 20.5t-56.5 2.5v-2l-28 -189q-12 -49 0 -64zM782 898q6 -26 29 -33t42 1q52 22 38 66q-6 20 -37 26h-18q-25 -8 -42.5 -21t-11.5 -39zM895 618q-4 -38 27 -48q20 -7 69 -7q6 33 11.5 67t11.5 66q10 -14 18 -30.5t17.5 -31.5 t20.5 -33.5t24.5 -28t33 -11.5t36.5 3q42 12 46 46q-36 6 -52.5 32t-25 42t-18.5 33l26 27q19 18 40.5 37.5t39.5 38.5l27 26q-31 -2 -61.5 2t-45.5 -3q-19 -9 -36.5 -25.5t-30 -31t-25.5 -30.5t-30 -29q4 35 12 79t12 83t-24.5 47t-73.5 6v-4z" />
<glyph unicode=":" horiz-adv-x="1634" d="M228 883q1 129 58.5 234.5t153.5 176.5q203 149 478 117q172 -20 304 -143q130 -121 150 -283q21 -247 -93 -439q-38 -65 -82 -103t-100.5 -62.5t-117.5 -33.5q-143 -21 -227 44q-6 4 -11.5 13.5t-10.5 16.5q-13 18 -25 9q-64 -292 -144 -430h-94q-24 80 4 233 q8 53 27.5 116t37.5 127q48 163 48 214.5t-5.5 74.5t-10.5 48q-13 64 -7 107.5t40 87t76 63t83 10t62 -58.5t17.5 -94t-17 -90t-31 -89t-26.5 -85q-21 -97 32 -144q18 -18 60 -27.5t95.5 -0.5t99.5 60.5t73.5 122t34.5 152.5t-5 159q-27 173 -133 235q-148 89 -308 45 q-146 -39 -240 -166q-97 -131 -81 -275q4 -43 24.5 -76.5t35 -65.5t12.5 -63.5t-39 -68.5q-109 43 -154 123t-44 209z" />
<glyph unicode="?" d="M96 719q0 150 56.5 280.5t153.5 229t228.5 155t280.5 56.5q150 0 281 -56.5t229 -155t154.5 -229.5t56.5 -280q0 -150 -56.5 -281t-154.5 -228t-229 -153.5t-281 -56.5t-281 56.5t-228 153.5t-153.5 228t-56.5 281zM471 782q0 -90 67.5 -152.5t172.5 -86.5 q-25 -94 -62 -117q175 14 256 115q111 23 182.5 85t71.5 146q0 100 -100 170q-103 72 -244 72t-244 -72q-100 -70 -100 -160zM784 963h9q113 0 197 -57q81 -54 81 -136q0 -55 -42 -101t-109 -69q102 63 102 158q0 76 -68 135q-66 56 -170 70z" />
<glyph unicode="@" d="M96 719q0 150 56.5 280.5t155 229t229.5 155t280 56.5q150 0 281 -56.5t228 -155t153.5 -229.5t56.5 -280q0 -150 -56.5 -281t-153.5 -228t-228 -153.5t-281 -56.5t-280.5 56.5t-229 153.5t-155 228t-56.5 281zM547 685q16 -92 65 -161q20 -31 46 -59.5t59 -26.5t52 15.5 t47.5 13.5t43 -4t26.5 -9q36 -14 62.5 -14t49 26t46 58.5t33.5 61t13 32.5q-93 48 -93 136q0 73 61 120q11 9 13 9q-29 43 -67.5 54t-67.5 13t-62.5 -15t-54.5 -17q-20 0 -49 15t-66.5 14t-74.5 -23q-112 -68 -82 -239zM813 956q29 -4 56.5 10.5t43.5 37.5q41 47 35 108 q-85 -7 -126 -99q-13 -28 -9 -57z" />
<glyph unicode="A" horiz-adv-x="1570" d="M100 390q6 9 19 1q311 -180 682 -180q244 0 501 98q11 4 25 10t24.5 -9t-8.5 -25q-32 -28 -59 -41q-109 -66 -242 -99.5t-256 -33.5q-397 0 -682 262q-6 5 -6 11q0 3 2 6zM477 738q0 185 158 249q98 53 276 53v21q0 29 -1 57t-16 48q-30 42 -81 42h-12q-93 -10 -111 -92 q-12 -24 -24 -24l-146 14q-23 12 -18 33q22 111 112 169q71 47 187 56h30q142 0 224 -74q63 -58 63 -182v-305q0 -49 18.5 -78t41.5 -57q10 -23 -4 -37q-23 -20 -57 -48t-48 -41q-23 -22 -43 -12q-39 31 -52 49.5t-32 47.5q-79 -75 -141 -92q-57 -15 -103 -15 q-94 0 -157.5 57.5t-63.5 160.5zM690 782q0 -114 92 -114h19q54 17 82 69q25 35 26.5 73t1.5 83v29q-79 0 -118 -11.5t-71 -43t-32 -85.5zM1217 366q0 17 67 44q48 12 92 12h7q75 -3 85 -21q8 -8 9 -22v-6q-4 -39 -24.5 -99.5t-68.5 -99.5q-7 -7 -13 -7q-2 0 -4 1 q-7 4 -1 16t16.5 38t17.5 52q10 38 10 58q0 13 -4 20q-11 16 -64 16q-24 0 -58 -3q-16 -4 -30.5 -4.5t-24.5 -1.5q-12 -2 -12 7z" />
<glyph unicode="B" horiz-adv-x="1286" d="M96 600v608q0 49 36 85t86 36t86 -36t36 -85v-608q0 -101 72 -174q68 -70 172 -70h121q103 0 173 62q70 60 70 149q0 84 -38 152q-35 61 -83 61h-243q-51 0 -87 36t-36 86t35.5 86t87.5 36h243q151 0 259 -134q106 -132 106 -323q0 -189 -142 -323q-143 -133 -345 -133 h-121q-203 0 -346 144q-142 144 -142 345z" />
<glyph unicode="C" horiz-adv-x="1490" d="M96 586v178q0 10 9.5 19.5t19.5 9.5h313l-135 -236h-178q-10 0 -19.5 7t-9.5 22zM199 166l14 119q0 10 9 14t18 0l77 -45q20 -16 5 -33l-101 -65q-10 -10 -16 -5t-6 15zM254 373l358 618q9 24 41 13l76 -46q23 -12 12 -40l-358 -619q-9 -23 -41 -12l-76 45q-16 7 -16 24 q0 7 4 17zM616 557l136 236h77l111 -236h-324zM710 1254q-5 20 -5 33q0 15 7 18q2 1 5 1q11 0 29 -25q22 -30 49.5 -76t58.5 -100t58.5 -98t67.5 -114t77 -141q88 -168 98 -187.5t9 -31t-8 -20.5q-16 -21 -34 -26.5t-29.5 -9.5t-33.5 6q-32 16 -157 309q-38 91 -61 141 t-49 107.5t-48.5 113.5t-33.5 100zM1092 793h276q14 0 21.5 -9.5t7.5 -19.5v-178q0 -29 -29 -29h-156q-4 4 -5 12.5t-5 13.5q-6 7 -26 54q-24 43 -84 156zM1107 418q3 12 17 20l45 23q5 3 12 3q5 0 11 -2q12 -5 16 -16l37 -69q12 -29 -10 -49l-33 -19q-27 -11 -45 13l-43 73 q-8 8 -8 17q0 3 1 6zM1209 214q-14 19 -14 36q0 22 22 41q28 15 48 15q16 0 27 -10q36 -34 36 -129q0 -18 -1 -38q-5 13 -35 27q-61 29 -83 58z" />
<glyph unicode="D" horiz-adv-x="1388" d="M96 719q0 123 47 232.5t128 190.5q175 175 423 175q247 0 424 -175q82 -81 129 -190.5t47 -233.5t-47 -233.5t-129 -190.5q-177 -175 -424 -175q-248 0 -423 175t-175 425zM197 694q4 -180 131 -313q153 231 417 319q-7 12 -30 72q-222 -82 -449 -82zM199 793h67 q214 0 406 71q-84 156 -207 297q-104 -55 -175 -151.5t-91 -216.5zM401 311q139 -92 293 -92q93 0 158 25q-16 191 -74 362q-234 -82 -377 -295zM565 1198q117 -145 199 -297q145 63 276 176q-148 140 -346 140q-66 0 -129 -19zM807 809l35 -82q92 18 169 18t183 -26 q0 145 -88 280q-141 -119 -299 -190zM874 631q52 -152 74 -342q188 108 236 332q-103 22 -175 22t-135 -12z" />
<glyph unicode="E" horiz-adv-x="1644" d="M96 268v903h436q164 0 236 -96q41 -57 41 -139t-45 -129q-19 -31 -66 -51q140 -59 140 -215q0 -74 -41 -144q-45 -67 -112 -97q-26 -11 -54 -21q-80 -11 -129 -11h-406zM303 426h193q61 0 92 16q59 27 59 105t-59 104q-21 15 -88 15h-197v-240zM303 817h193 q50 0 91.5 21.5t41.5 81t-49 81.5q-57 15 -107 15h-170v-199zM907 608q0 171 88 261q88 91 234 92q82 0 133 -23q85 -37 129 -102q41 -70 48 -115q11 -69 11 -148h-473q0 -93 68 -135q34 -27 88 -27q1 1 2 1q55 0 96 30q23 14 35 43h172q-6 -59 -61 -116q-81 -93 -227 -93 t-246 76q-97 82 -97 256zM1044 1042v93h361v-93h-361zM1081 684h291q-6 63 -43 104q-45 33 -106.5 33t-96.5 -37q-33 -39 -45 -100z" />
<glyph unicode="F" horiz-adv-x="862" d="M96 674v239h193v119q0 132 84 222q85 92 202 92h193v-236h-193q-16 0 -31.5 -21.5t-15.5 -52.5v-123h240v-239h-240v-582h-239v582h-193z" />
<glyph unicode="G" horiz-adv-x="854" d="M96 358q0 131 133 207q-22 52 -22 112.5t26 113.5q-104 86 -104 213q0 113 80 195q79 81 192 81q71 0 146 -47l198 110v-184l-96 -51q37 -42 37 -101.5t-21.5 -110t-59.5 -88.5q-81 -81 -195 -81h-9q-10 0 -10 -43t10 -68h27q136 0 236 -76q96 -73 96 -182 q0 -108 -96 -182q-99 -76 -236 -76t-236 76q-96 74 -96 182zM281 358q0 -41 43 -69.5t104 -28.5t104 28.5t43 69.5t-43 71t-104 30t-104 -30t-43 -71zM281 1003q0 -54 38 -91.5t91 -37.5t91 37t38 91.5t-38 92.5t-91 38t-91 -38t-38 -92z" />
<glyph unicode="H" horiz-adv-x="1427" d="M96 971.5q0 89.5 27 152t72 107.5q98 98 239 98q106 0 184 -55q31 8 120.5 8t192.5 -44t180 -121q167 -167 167 -398v-40t-2 -38q57 -86 57 -175t-26.5 -150.5t-71.5 -106.5q-98 -98 -240 -98q-100 0 -180 51q-53 -12 -104 -12q-233 0 -401 166q-77 77 -122 181.5 t-45 192t9 117.5q-56 75 -56 164.5zM372 522q-2 -10 -2 -19q0 -48 50 -97q91 -91 223 -104q32 -3 71 -3q23 0 49 1q69 3 130 31.5t103 74.5q62 68 62 139q0 36 -16 73q-54 133 -278 178q-62 13 -123 28t-79.5 46t-4.5 61q14 31 53 53q37 22 85 21h4q50 -1 87 -22.5t67 -47.5 t53.5 -45.5t45 -17.5t40 19.5t24.5 42.5q3 12 3 23q0 48 -50 90q-106 95 -278 95q-28 0 -58 -3q-95 -8 -166 -69q-76 -65 -84 -175q-1 -10 -1 -19q0 -91 96 -155q84 -56 214 -76q161 -26 180 -94q1 -5 1 -10q0 -23 -24 -51q-30 -34 -69 -43q-27 -6 -53 -6q-11 0 -23 1 q-36 4 -79 21t-60.5 38t-36.5 39q-45 43 -77 43q-2 -1 -4 -1q-34 -2 -52 -18.5t-23 -41.5z" />
<glyph unicode="I" horiz-adv-x="1232" d="M96 1243q0 59 40.5 101t99.5 42t100 -41.5t41 -101.5q0 -59 -41 -100t-100 -41t-99.5 41t-40.5 100zM121 225v793h229v-793h-229zM461 225v793h229v-37q59 29 130 30q9 0 18 -1q82 -4 147 -37q70 -39 112 -113t42 -151v-484h-226v484q0 16 -12 38.5t-27 26.5 q-28 15 -58 15q-32 0 -68 -17q-31 -14 -58 -39v-508h-229z" />
<glyph unicode="J" horiz-adv-x="1886" d="M116 649q58 208 316 318l-100 198l243 31l82 -166q6 0 89.5 14.5t214.5 15.5h14q123 0 225 -16q196 -29 348 -110.5t244 -202.5l-778 -221l-180 364q57 9 113 9q66 0 130 -13l74 -139l264 70q-185 120 -431 143q-29 3 -59 3q-101 0 -212 -32l213 -432l-779 -225 q-51 125 -51 245q0 74 20 146zM346 616q-2 -15 -2 -30q0 -36 14 -70l258 72l-114 235q-141 -89 -156 -207z" />
<glyph unicode="K" horiz-adv-x="1636" d="M96 590v766h262v-373q197 111 461 111q297 0 510 -144q98 -67 155.5 -156t57.5 -190.5t-57.5 -191.5t-155.5 -157q-211 -144 -510 -144q-290 0 -503 139q-99 65 -157.5 152t-62.5 188zM358 604q0 -138 136 -232q138 -96 324 -96q95 0 179 26t147 70q136 94 136 232 q0 136 -135.5 232t-325.5 96t-325.5 -96t-135.5 -232zM516 604q0 90 88 152q88 61 214 61q62 0 117.5 -16.5t97.5 -44.5q89 -61 89 -152q0 -93 -89 -154q-94 -63 -214 -63q-124 0 -215 63q-88 62 -88 154z" />
<glyph unicode="L" horiz-adv-x="1572" d="M248 342q14 -2 28 -2h31q176 0 305 104q-82 2 -144 50.5t-85 121.5q25 -6 44 -6q33 0 67 8q-86 18 -142.5 85t-56.5 157v2q58 -28 115 -28q-111 69 -111 204q0 66 33 125q92 -115 223 -183.5t285 -74.5q-6 25 -6 64.5t19 86t53 80.5q74 72 175 72t179 -78q69 10 157 58 q-33 -86 -108 -135q65 7 141 39q-49 -72 -123 -129v-29q0 -123 -46 -249t-135 -227.5t-219 -165t-300 -63.5q-200 0 -379 113z" />
<glyph unicode="M" horiz-adv-x="1259" d="M96 590v244q0 59 39 99t92 40t88 -30t47 -77q61 74 142.5 74t134.5 -42t70 -105q73 73 185 73h3q114 0 189 -78q79 -80 79 -188v-500h-534v279h-322v211h-213zM111 1142q0 48 33.5 81.5t80.5 33.5t81 -33.5t34 -81.5t-34 -83t-81 -35t-80.5 35t-33.5 83zM365 1141.5 q0 62.5 44 107.5t106 45t107.5 -45t45.5 -107t-45 -106.5t-107.5 -44.5t-106.5 44t-44 106.5zM700 1143q0 78 58 137q55 57 139 57q127 0 179 -119q16 -36 16 -75q0 -84 -55.5 -141.5t-138.5 -57.5t-140.5 57.5t-57.5 141.5z" />
<glyph unicode="N" horiz-adv-x="1626" d="M96 719q0 132 92 222q93 91 222 91q131 0 222 -91t91 -222t-91 -222t-222 -91q-129 0 -222 91q-92 90 -92 222zM907 719q0 132 92 222q93 91 220 91q128 0 221 -91q92 -90 92 -222t-92 -222q-93 -91 -221 -91q-127 0 -220 91q-92 90 -92 222z" />
<glyph unicode="O" horiz-adv-x="835" d="M96 809v145q73 24 114.5 57.5t63.5 74.5q30 59 43 145h144v-238h239v-184h-239v-264q0 -91 9 -113.5t32 -37.5q37 -23 102.5 -23t136.5 49v-164q-70 -29 -121.5 -42t-101.5 -13q-58 0 -117 18t-98 53q-43 33 -51 70q-16 31 -16 107v360h-140z" />
<glyph unicode="P" horiz-adv-x="1431" d="M96 217l248 1135h557q141 0 231 -94q77 -79 77 -199q0 -44 -11 -94q-36 -172 -164 -274q-125 -99 -297 -99h-231l-82 -375h-328zM225 80l15 59h274l80 375h233q172 0 297 100q128 103 164 273q10 48 10 92q0 69 -26 125q66 -75 65 -185q0 -44 -10 -94q-34 -168 -167 -273 q-124 -99 -294 -99h-235l-78 -373h-328zM551 809h162q59 4 111.5 48t68.5 108q0 10 4 20q3 7 3 17q0 15 -6 37q-10 36 -40.5 58.5t-71.5 22.5h-161z" />
<glyph unicode="Q" horiz-adv-x="1363" d="M98 782q4 119 54.5 224.5t132.5 184.5q177 171 417 171t407 -171q159 -163 159 -387v-22q-6 -154 -82 -279.5t-199 -203.5q73 -96 146 -96h10v-99q-50 -27 -104 -27q-31 0 -64 9q-45 12 -73 47q-44 53 -73 96q-77 -27 -178 -27h-4q-104 1 -208.5 46t-181.5 124 q-159 163 -159 388v22zM389 793v-16q0 -168 80 -285q84 -125 209 -125q45 0 74 14q-6 10 -14 23q-24 45 -45 55q-26 12 -52 12q-11 0 -23 -2v100q41 15 81 15q50 0 99 -24q46 -23 87 -83q102 124 110 316v17q0 166 -77 282q-85 125 -210 125q-62 0 -119 -34t-100 -91 q-92 -124 -100 -299z" />
<glyph unicode="R" horiz-adv-x="1441" d="M96 264q0 70 48 118t118 48t118 -48t48 -118t-48 -118t-118 -48t-118 48.5t-48 117.5zM96 686v240q170 0 320.5 -65.5t263.5 -178.5t178.5 -263.5t65.5 -320.5h-244q0 244 -170 414q-174 174 -414 174zM96 1110v240q258 0 486.5 -98.5t398.5 -268.5t268.5 -398.5 t98.5 -486.5h-240q0 209 -80 393.5t-217 321.5t-321.5 217t-393.5 80z" />
<glyph unicode="S" horiz-adv-x="1667" d="M96 506v203h254v-203q0 -33 21.5 -56.5t55.5 -23.5t55.5 23.5t21.5 56.5v461q0 137 96 233q98 98 236 98q135 0 233 -98q96 -96 96 -233v-93l-151 -47l-105 47v93q0 31 -21.5 54t-53 23t-53 -23.5t-21.5 -53.5v-471q0 -137 -98 -230q-98 -92 -234 -92q-138 0 -236 96 q-96 95 -96 236zM909 496v209l105 -48l151 48v-209q0 -35 21.5 -56.5t55.5 -21.5t55.5 21.5t21.5 56.5v202h254v-202q0 -140 -96 -236t-236 -96q-137 0 -233 96q-99 99 -99 236z" />
<glyph unicode="T" horiz-adv-x="1093" d="M96 641v502q0 59 41 99t100.5 40t99.5 -40t40 -99v-139h483q57 0 98 -42t41 -101.5t-40.5 -100.5t-98.5 -41h-483v-78q0 -83 53 -145t123 -62h309q59 0 98 -39t39 -99t-40.5 -100t-98.5 -40h-313q-187 0 -317 142q-134 145 -134 343z" />
<glyph unicode="U" horiz-adv-x="1396" d="M96 506v444q0 158 112 272q112 113 269 113h268q80 -9 143 -51q118 -79 152 -160q19 -31 25 -63q15 -75 20 -114.5t19 -52.5t38.5 -16.5t50.5 -4.5t48.5 -1t30.5 -6l18 -14l13 -23v-323q0 -156 -114 -272q-112 -113 -269 -113h-443q-157 0 -269 113q-112 114 -112 272z M410 509q0 -30 21.5 -52.5t51.5 -22.5h432q31 0 52.5 22.5t21.5 52.5t-21.5 51.5t-52.5 21.5h-432q-31 0 -52 -21.5t-21 -51.5zM410 947q0 -30 21.5 -51.5t51.5 -21.5h211q31 0 52.5 22t21.5 51.5t-21.5 52t-52.5 22.5h-211q-31 0 -52 -22.5t-21 -52.5z" />
<glyph unicode="V" horiz-adv-x="1613" d="M96 1012q70 80 144 147q199 180 311 180q30 0 54 -13q65 -36 95 -148q22 -80 37 -181.5t25 -148.5q37 -135 62.5 -209t56.5 -74q61 0 198 254q32 59 32 114q-1 49 -23 79q-24 30 -68 34q-5 0 -10 1q-42 0 -97 -33q16 98 71.5 169.5t129.5 112.5q74 40 153 50q19 2 38 3 q56 0 101 -22q60 -29 93 -97q21 -43 21 -104q0 -34 -8 -76q-20 -112 -66.5 -217.5t-109 -199.5t-133 -176t-137.5 -145q-127 -120 -194 -164q-63 -41 -108 -42h-5q-46 2 -86 26q-78 46 -116 130q-41 92 -96 278.5t-78 257.5q-54 166 -70 183q-13 15 -35 15q-45 0 -124 -62z " />
<glyph unicode="W" horiz-adv-x="1441" d="M96 713q0 120 56 254l299 -815q-157 75 -257 225q-98 149 -98 336zM201 1055q84 129 219 204.5t280 75.5q265 0 445 -161h-12q-45 0 -74 -35t-29 -75t18.5 -75t43.5 -74q16 -31 34.5 -70.5t18.5 -90.5q0 -75 -49 -211l-62 -207l-225 668q56 8 70 8q22 4 22 27.5t-27 23.5 q-116 -8 -167.5 -8t-163.5 8q-12 0 -19.5 -7t-7.5 -16q0 -24 16.5 -26t26.5 -4t22.5 -3t24.5 -3l96 -265l-137 -409l-225 674q56 8 70 8q24 4 24 27.5t-26 23.5q-124 -8 -166 -8h-41zM547 115l184 542l193 -524q2 -2 2 -4t4 -2q-91 -37 -209 -37q-106 0 -174 25zM1034 174 l191 549q49 115 49 225v33q0 17 -4 31q78 -147 78 -310t-86 -305.5t-228 -222.5z" />
<glyph unicode="X" horiz-adv-x="1261" d="M96 571v74h269v-74h-93v-450h-84v450h-92zM180 1329h96l66 -231h4l64 231h98l-115 -338v-239h-98v227zM397 184v324h78v-295l4 -23q4 -4 21 -4t41 27v295h77v-387h-77v45q-39 -49 -78 -49t-51 14q-14 23 -15 53zM516 858v221q0 49 33 82q41 29 96 29t88 -33 q33 -29 33 -78v-221q0 -57 -33 -84q-35 -35 -92 -35t-91 33t-34 86zM604 850q0 -37 37 -37q14 0 25.5 11t11.5 26v233q0 16 -12 24.5t-28.5 8.5t-23.5 -10q-10 -6 -10 -23v-233zM678 121v524h78v-166q18 18 29 25q14 8 40 8q74 0 74 -96v-213q0 -86 -67 -86h-3q-44 0 -73 33 v-29h-78zM756 195q10 -13 27.5 -16t21.5 0t10 7q2 4 2 27v199q0 39 -29 41q-22 -5 -32 -15v-243zM836 821v359h90v-330q0 -18 2 -21q8 -8 18 -8t25.5 8t27.5 25v326h88v-428h-88v47q-12 -14 -25 -22.5t-26 -15.5q-32 -18 -56 -18t-35 15q-21 30 -21 63zM940 231v175 q0 47 33 79q33 33 84 33q110 0 110 -112v-101h-147v-74q0 -33 7 -42t21 -9q19 0 31 6q8 8 8 45v19h80v-19q0 -120 -112 -120h-4q-49 0 -82 32q-29 35 -29 88zM1020 369h67v37q0 20 -8 36q-14 7 -25.5 7t-25.5 -7q-8 -8 -8 -36v-37z" />
<glyph unicode="Y" horiz-adv-x="1904" d="M96 1124v109h764v-8l2 -4l-2 -15v-82h-229q74 -105 144.5 -196.5t107.5 -140t61 -78.5l305 276h-184l-25 107h670l-2 -7h2l-47 -71h-4l-19 -29h-120q-28 -8 -40.5 -9t-48.5 -25.5t-84.5 -60.5t-102.5 -80t-100 -86q-107 -98 -118 -130q-2 -8 -2 -52t1 -96q2 -125 7 -157 q10 -2 44 -2h129t67 -2l-4 -78q-24 4 -122 4h-217.5t-129 -1t-101.5 -3q-107 -4 -174 -4l11 73q14 2 45.5 2.5t66.5 1.5q86 2 109 27q10 10 10 96q0 143 -6 191q-6 30 -123 172.5t-165 197.5q-109 126 -150 160h-226zM1571 215v111l65 -9l60 -4l-15 -110l-59 4zM1585 879 q10 -4 44 -7.5t72 -7.5q76 -8 109 -8l-118 -465l-103 8z" />
<glyph unicode="Z" horiz-adv-x="1146" d="M96 274q141 36 238 145q66 73 76 129q4 19 8 58q10 135 50 215t124 123q48 -27 88 -33v-10q0 -27 14 -59l19 -8q56 -19 114 -19q80 0 162 37l51 -113q-108 -58 -166 -65q-29 -3 -57 -3q-49 0 -96 9h-27q-30 0 -45 -41q-3 -26 23 -41q2 -2 42 -21.5t96 -63.5 q151 -118 243 -298l-129 -78q-49 101 -194 201q-54 37 -94 54.5t-43 19.5t-15 2t-23 -15l-23 -26q-27 -35 -56.5 -72t-72.5 -71q-102 -83 -243 -117zM410 1165q0 70 47.5 118t117.5 48t118 -48t48 -118t-48 -118t-118 -48t-117.5 48.5t-47.5 117.5z" />
<glyph unicode="a" d="M96 719q0 150 56.5 280.5t155 228t229.5 154t280 56.5q150 0 281 -56.5t228 -154t153.5 -228.5t56.5 -280q0 -150 -56.5 -281t-153.5 -229t-228 -154.5t-281 -56.5t-280.5 56.5t-229 154.5t-155 229t-56.5 281zM435 544q-1 -2 -1 -3q0 -3 4 -6q159 -146 379 -146 q157 0 277 74q10 4 17 10t16 12t3 14.5t-13 5.5t-13 -5t-41 -16.5t-103.5 -27t-134.5 -12.5q-207 0 -379 101q-8 4 -11 -1zM645 743q0 -63 35 -95t99 -32t124 60q35 -55 56 -55q6 0 10 4q14 10 32.5 26.5t29.5 26.5t1 23t-20.5 28.5t-10.5 44.5v129q0 41 -3 77t-30 62 q-45 43 -126 43h-17q-141 -10 -166 -124q-4 -14 11 -19l80 -8q10 0 15 20q9 36 60 45h6q30 1 43 -16.5t13 -32.5v-45q-28 0 -58 -4q-64 -9 -100 -24q-84 -36 -84 -134zM764 758q0 57 61 78q14 4 29 4h33v-17q0 -25 -1 -45t-16 -41q-14 -29 -45 -39h-10q-51 0 -51 60z M1063 527q6 1 13 1l60 4q19 0 24 -7t3 -19t-6 -26q-10 -35 -16 -45.5t-1 -12.5h1q5 0 19 12q16 14 27 46t13 55v4q0 8 -4 14t-36 9q-10 1 -18 1q-20 0 -36 -5q-22 -7 -29.5 -11t-14.5 -8q-6 -4 -6 -7q0 -6 7 -5z" />
<glyph unicode="b" d="M96 719.5q0 148.5 55.5 278.5t152.5 227.5t227.5 155t277.5 59.5h14q147 -2 277.5 -59.5t226.5 -155t152.5 -227.5t56.5 -278.5t-56.5 -279.5t-154.5 -229t-229 -154.5t-281 -56.5t-281 56.5t-228 154.5t-153.5 229t-56.5 279.5zM528 653q0 -112 80 -192t191 -80h67 q109 0 191 75q80 72 80 179q0 106 -59 180q-58 74 -144 74h-135q-29 0 -48.5 -19.5t-19.5 -48.5t19.5 -48t48.5 -19h135q25 0 46 -34t21 -84t-38.5 -84t-96.5 -34h-67q-55 0 -95 39t-40 96v338q0 29 -19.5 48.5t-48.5 19.5t-48.5 -19.5t-19.5 -48.5v-338z" />
<glyph unicode="c" d="M96 719q0 150 56.5 280.5t155 228t229.5 154t280 56.5q150 0 281 -56.5t228 -154t153.5 -228.5t56.5 -280q0 -150 -56.5 -281t-153.5 -229t-228 -154.5t-281 -56.5t-280.5 56.5t-229 154.5t-155 229t-56.5 281zM455 645q0 -16 16 -16h98l76 131h-174q-16 0 -16 -17v-98z M512 412q0 -16 12 -6l56 36q10 10 -2 19l-43 24q-4 4 -9.5 1t-5.5 -9zM543 526q-3 -6 -3 -10q0 -8 9 -12l43 -25q16 -8 22 6l199 344q8 16 -6 23l-43 25q-16 8 -23 -7zM743 629h181l-62 131h-43zM799 1044q-4 -2 -4 -9q0 -34 69 -189q8 -18 26.5 -60.5t37.5 -84.5 q49 -105 61 -113q25 -13 55 16q11 10 3.5 21.5t-22.5 42t-35 69.5q-34 63 -65.5 115t-48 81.5t-32.5 56.5q-32 54 -43 54h-2zM1008 760q14 -25 25 -47.5t22 -38.5q4 -12 8 -19.5t7 -11.5t3 -7t2 -7h86q16 0 17 16v98q0 16 -17 17h-153zM1020 539l24 -41q10 -14 25 -6l18 10 q12 10 7 26l-21 39q-5 11 -13 11q-4 0 -9 -3l-25 -12q-10 -6 -10 -14q0 -5 4 -10zM1073 438q16 -22 39 -28.5t27 -18.5q2 15 2 28q0 44 -21 65q-6 6 -16 6q-11 0 -27 -9q-11 -11 -11 -23q0 -10 7 -20z" />
<glyph unicode="d" d="M96 719q0 150 56.5 280.5t153.5 228t228.5 154t280.5 56.5q150 0 281 -56.5t229 -154t154.5 -228.5t56.5 -280q0 -150 -56.5 -281t-154.5 -229t-229 -154.5t-281 -56.5t-281 56.5t-228 154.5t-153.5 229t-56.5 281zM483 719q0 -139 97 -236q98 -98 235 -98q138 0 236 98 t98 236q0 135 -98 233q-99 99 -236 99q-136 0 -235 -99q-97 -97 -97 -233zM539 705l39 -3q127 0 249 46q7 -19 17 -39q-151 -52 -232 -179q-70 74 -73 175zM541 760q10 66 49 120t98 85q70 -84 115 -166q-109 -39 -225 -39h-37zM653 492q80 121 209 163q33 -98 41 -200 q-41 -14 -107.5 -14t-142.5 51zM743 985q45 10 86 10t90.5 -20t88.5 -57q-72 -61 -154 -99q-47 86 -111 166zM879 768q88 41 165 106q50 -76 50 -155q-68 14 -107 14t-90 -10q-9 23 -18 45zM915 670q37 6 78 6t94 -12q-26 -126 -131 -185q-13 110 -41 191z" />
<glyph unicode="e" d="M96 719.5q0 148.5 56.5 278.5t152.5 227.5t226.5 155t277.5 59.5h14q147 -2 277.5 -59.5t227.5 -155t152.5 -227.5t55.5 -278.5t-56.5 -279.5t-153.5 -229t-228 -154.5t-281 -56.5t-280.5 56.5t-229 154.5t-155 229t-56.5 279.5zM414 469h225q94 0 127 33q60 41 60 122 q0 85 -78 115q27 12 36 29q25 27 25 72t-23 78q-41 53 -131 53h-241v-502zM528 557v133h109q82 0 82 -61q0 -49 -33 -64q-16 -8 -51 -8h-107zM528 774v111h95q35 0 59 -8q27 -12 27 -48q-2 -55 -74 -55h-107zM864 657q0 -95 54 -141q55 -43 135.5 -43t120 43t40.5 74h-96 q-15 -41 -71 -41q-31 0 -52 14q-37 23 -37 76h263q0 44 -5 76.5t-28 67t-62 55.5q-39 16 -101.5 16t-111.5 -51t-49 -146zM940 899h201v51h-201v-51zM961 700q6 33 24 56q20 20 54 20t59 -18q23 -23 24 -58h-161z" />
<glyph unicode="f" horiz-adv-x="1628" d="M96 719q0 150 56.5 280.5t153.5 229t228.5 155t280.5 56.5q150 0 281 -56.5t228 -155t153.5 -229.5t56.5 -280q0 -150 -56.5 -281t-153.5 -228t-228 -153.5t-281 -56.5t-281 56.5t-228 153.5t-153.5 228t-56.5 281zM629 694h106v-323h133v323h133v133h-133v68 q0 16 8.5 28.5t18.5 12.5h106v131h-106q-66 0 -113 -51t-47 -123v-66h-106v-133z" />
<glyph unicode="g" horiz-adv-x="1628" d="M96 723q0 150 56.5 281t153.5 228t228.5 153.5t280.5 56.5q150 0 281 -56.5t228 -153.5t153.5 -228.5t56.5 -280.5q0 -150 -56.5 -281t-153.5 -229t-228 -154.5t-281 -56.5t-281 56.5t-228 154.5t-153.5 229t-56.5 281zM631 527q0 -66 53 -108t131 -42t131 42t53 101 t-53 101.5t-131 42.5h-14q-6 12 -6 36.5t6 24.5h4q63 0 108 44t45 110q0 32 -20 57l53 29v102l-110 -61q-39 26 -91 26t-96.5 -45t-44.5 -112.5t58 -114.5q-15 -29 -15 -64t13 -61q-74 -42 -74 -108zM733 520q0 23 23.5 39t58.5 16t58.5 -16t23.5 -39t-23.5 -39t-58.5 -16 t-58.5 16.5t-23.5 38.5zM733 878q0 30 21.5 51t50.5 21t50.5 -21.5t21.5 -51t-21.5 -50t-50.5 -20.5t-50.5 20.5t-21.5 50.5z" />
<glyph unicode="h" d="M96 719q0 150 56.5 280.5t155 228t229.5 154t280 56.5q150 0 281 -56.5t228 -154t153.5 -228.5t56.5 -280q0 -150 -56.5 -281t-153.5 -228t-228 -153.5t-281 -56.5t-280.5 56.5t-229 153.5t-155 228t-56.5 281zM473 880.5q0 -69.5 31 -112.5q-4 -12 -4 -24v-25 q0 -131 92 -223q93 -93 223 -93q29 0 57 7q45 -29 92.5 -29t82 14.5t60.5 40.5q54 52 54 121t-33 119q2 10 2 22v21q0 129 -92 221t-223 92h-25q-14 0 -26 -4q-43 31 -92 31t-84 -14.5t-60 -40.5q-55 -54 -55 -123.5zM626 610q8 30 40 32q26 0 41.5 -16t25 -27t34 -21.5 t44.5 -12.5q7 -1 13 -1q42 0 67 28q14 16 14 30q0 16 -19 30q-22 14 -67 22t-76.5 19.5t-57.5 27.5q-53 33 -53 82q0 7 1 14q4 66 46 98.5t101 37.5q14 1 27 1q89 0 151 -53q31 -27 31 -48q0 -3 -1 -6q-12 -38 -40 -42q-12 -2 -24.5 9t-29.5 26q-46 39 -80 39t-55.5 -12.5 t-29.5 -30.5q-5 -10 -5 -18q0 -28 52 -40q33 -8 68 -15t64 -19q70 -26 91 -80q10 -22 10 -43q0 -40 -35 -77q-52 -53 -129 -57q-16 -1 -30 -1q-55 0 -88 12q-41 16 -75 49q-27 26 -27 51q-1 6 1 12z" />
<glyph unicode="i" d="M96 721q0 150 56.5 281t153.5 228t228.5 153.5t280.5 56.5q150 0 281 -56.5t229 -153.5t154.5 -228.5t56.5 -280.5q0 -150 -56.5 -281t-154.5 -229t-229 -154.5t-281 -56.5t-281 56.5t-228 154.5t-153.5 229t-56.5 281zM535 1049q0 -33 22.5 -55.5t54.5 -22.5 q33 0 55.5 22.5t22.5 55.5t-22.5 56t-55.5 23t-55 -23.5t-22 -55.5zM549 483h127v441h-127v-441zM737 483h127v283q25 25 54.5 29t43.5 -3q27 -16 27 -40v-269h125v269q0 43 -23.5 84t-60.5 61q-37 21 -83 23h-11q-40 0 -72 -17v21h-127v-441z" />
<glyph unicode="j" horiz-adv-x="1628" d="M96 717.5q0 148.5 55.5 278.5t152.5 227.5t226 155t277 59.5h16q147 -2 276.5 -59.5t226.5 -155t152.5 -227.5t55.5 -278.5t-56.5 -279.5t-153.5 -229t-228 -154.5t-281 -56.5t-281 56.5t-228 154.5t-153.5 229t-56.5 279.5zM395 621v-16q0 -67 29 -138l432 125l-119 239 q59 17 121 17q75 0 154 -25q63 -23 116 -55l-147 -39l-41 78q-36 7 -73 7q-31 0 -62 -5l100 -203l432 123q-102 131 -329 175q-50 9 -112 9q-81 0 -181 -16q-4 -2 -8 -2l-45 92l-136 -16l56 -111q-176 -76 -187 -239zM541 610q-7 18 -7 38q0 35 22 74q17 30 65 58l63 -131z " />
<glyph unicode="k" d="M96 717.5q0 148.5 55.5 279.5t152.5 228.5t227.5 154t277.5 58.5h14q147 -2 277.5 -58.5t227.5 -154t152.5 -228.5t55.5 -279.5t-56.5 -279.5t-154.5 -228t-229 -153.5t-281 -56.5t-281 56.5t-228 153.5t-153.5 228t-56.5 279.5zM440 653q4 -107 122 -188 q114 -78 280 -78t284 80q117 80 117 195q0 112 -117 192q-118 80 -272.5 80t-267.5 -62v207h-146v-426zM586 662q0 75 75.5 128.5t180.5 53.5q104 0 180 -54q76 -53 76 -128q0 -76 -76 -130q-76 -53 -180 -53q-105 0 -180.5 53.5t-75.5 129.5zM674 661q0 -50 48 -85t119 -35 t120 34.5t49 85t-49 85t-120 34.5t-119 -34.5t-48 -84.5z" />
<glyph unicode="l" d="M96 719q0 150 56.5 280.5t155 228t229 154t280.5 56.5t281 -56.5t228 -154t153.5 -228.5t56.5 -280q0 -150 -56.5 -281t-153.5 -228t-228 -153.5t-281 -56.5t-280.5 56.5t-229 153.5t-155 228t-56.5 281zM496 481q99 -65 211 -65t190 38t130 97q106 120 106 280v19 q39 27 73 76q-37 -15 -84 -23q45 27 66 80q-72 -31 -96 -35q-37 47 -100.5 47t-106.5 -43t-43 -104q0 -12 4 -33q-183 8 -301 154q-18 -35 -19 -74q0 -82 64 -121q-37 0 -66 17v-3q0 -53 33 -93t82 -50q-16 -4 -31.5 -4t-32.5 4q12 -43 49.5 -71.5t86.5 -30.5 q-78 -61 -181 -62h-34z" />
<glyph unicode="m" d="M96 719q0 150 56.5 280.5t153.5 228t228 154t281 56.5t281 -56.5t229 -154t154.5 -228.5t56.5 -280q0 -150 -56.5 -281t-154.5 -228t-229 -153.5t-281 -56.5t-281 56.5t-228 153.5t-153.5 228t-56.5 281zM518 647h119v-117h178v-155h297v278q0 61 -44 104.5t-106 43.5 t-104 -41q-10 35 -38.5 58.5t-73.5 23.5t-80 -41q-6 27 -25.5 43t-49.5 16t-51.5 -22.5t-21.5 -55.5v-135zM526 953q0 -28 18.5 -46t45.5 -18t45 18.5t18 46t-18 46t-45 18.5t-45.5 -18.5t-18.5 -46.5zM668 954q0 -35 24.5 -59.5t59.5 -24.5t59.5 25t24.5 59 q0 35 -24.5 59.5t-59.5 24.5t-59.5 -24.5t-24.5 -59.5zM854 953q0 -46 32 -77.5t78 -31.5t76.5 31.5t30.5 77.5t-30.5 78t-76.5 32t-78 -32t-32 -78z" />
<glyph unicode="n" d="M96 719q0 150 56.5 280.5t155 228t229.5 154t280 56.5q150 0 281 -56.5t228 -154t153.5 -228.5t56.5 -280q0 -150 -56.5 -281t-153.5 -228t-228 -153.5t-281 -56.5t-280.5 56.5t-229 153.5t-155 228t-56.5 281zM418 719q0 -72 51 -123t123 -51t123 51t51 123t-51 123 t-123 51t-123 -51t-51 -123zM868 719q0 -74 50 -125q50 -49 122 -49t123 51t51 123t-51 123t-122.5 51t-122 -50.5t-50.5 -123.5z" />
<glyph unicode="o" d="M96 715.5q0 148.5 55.5 278.5t152.5 227.5t227.5 155t277.5 59.5h14q147 -2 277.5 -59.5t226.5 -155t152.5 -227.5t56.5 -278.5t-56.5 -279.5t-154.5 -229t-229 -154.5t-281 -56.5t-281 56.5t-228 154.5t-153.5 229t-56.5 279.5zM637 768h78v-201q0 -43 7 -60 q32 -77 164 -77q43 0 109 31v90q-41 -27 -78 -27q-55 0 -73 35q-4 10 -4 62v147h133v102h-133v131h-80q-11 -86 -60 -120q-20 -17 -63 -33v-80z" />
<glyph unicode="p" d="M96 715q0 150 56.5 280.5t153.5 228t228.5 154t280.5 56.5q150 0 281 -56.5t229 -154t154.5 -228.5t56.5 -280q0 -150 -56.5 -281t-154.5 -228t-229 -153.5t-281 -56.5t-281 56.5t-228 153.5t-153.5 228t-56.5 281zM471 438h182l45 209h129q94 0 164 54.5t92 152.5 q6 27 6 52q0 66 -43 110q-50 53 -128 53h-310zM543 362h182l43 207h131q92 0 162.5 54.5t93.5 152.5q5 26 5 50q0 64 -36 106q13 -29 13 -70q0 -29 -7 -65q-17 -84 -88 -138.5t-165 -54.5h-129l-46 -209h-151zM723 768l39 172h90q47 0 61 -43q3 -13 3 -22q0 -4 -1 -7 q-2 -8 -7 -28.5t-32.5 -45t-62.5 -26.5h-90z" />
<glyph unicode="q" d="M96 719q0 150 56.5 280.5t155 228t229 154t280.5 56.5t281 -56.5t228 -154t153.5 -228.5t56.5 -280q0 -150 -56.5 -281t-153.5 -229t-228 -154.5t-281 -56.5t-280.5 56.5t-229 154.5t-155 229t-56.5 281zM492 754v-11q0 -129 88 -217q94 -94 225 -94q51 0 92 14 q41 -69 80 -80q17 -5 33 -5l61 16v55q-19 -4 -44.5 13.5t-41.5 39.5q68 43 110 113t45 146v17q0 66 -20 117q-24 58 -67 102q-93 95 -226 95t-232 -95t-103 -226zM653 760q4 93 57 166q50 69 119 69q71 0 117 -69q44 -68 44 -137v-9q-5 -126 -62 -196q-35 54 -97 59 q-25 2 -51 -8v-55q6 1 12 1q26 0 48 -24q4 -6 7 -13t7 -14q-18 -8 -47 -8t-58.5 18.5t-50.5 51.5q-45 68 -45 154v14z" />
<glyph unicode="r" d="M96 713.5q0 148.5 56.5 279.5t152.5 228.5t226.5 154t277.5 58.5h14q147 -2 277.5 -58.5t227.5 -154t152.5 -228.5t55.5 -279.5t-56.5 -279.5t-153.5 -228t-228 -153.5t-281 -56.5t-280.5 56.5t-229 153.5t-155 228t-56.5 279.5zM496 469q0 -39 26.5 -65.5t65.5 -26.5 t65.5 26.5t26.5 65.5t-26.5 65.5t-65.5 26.5t-65.5 -26.5t-26.5 -65.5zM496 702q133 0 229 -96q94 -94 94 -229h135q0 191 -134 325t-324 134v-134zM496 938q231 0 396 -165t165 -396h133q0 143 -54.5 270t-148.5 221.5t-221 148.5t-270 54v-133z" />
<glyph unicode="s" d="M96 721q0 150 56.5 281t153.5 228t228.5 153.5t280.5 56.5q150 0 281 -56.5t229 -153.5t154.5 -228.5t56.5 -280.5q0 -150 -56.5 -281t-154.5 -229t-229 -154.5t-281 -56.5t-281 56.5t-228 154.5t-153.5 229t-56.5 281zM412 606q0 -78 53 -131t130 -53t131 50t54 128v262 q0 16 12.5 29.5t29.5 13.5t29.5 -13t12.5 -30v-51l58 -27l84 27v51q0 76 -53.5 130.5t-130.5 54.5t-130 -54.5t-53 -130.5v-256q0 -18 -12.5 -31.5t-30.5 -13.5t-30.5 13.5t-12.5 31.5v113h-141v-113zM864 600q0 -78 54.5 -131t131.5 -53t130 53t53 131v113h-141v-113 q0 -18 -12.5 -30.5t-30.5 -12.5t-30.5 12.5t-12.5 30.5v117l-84 -27l-58 27v-117z" />
<glyph unicode="t" d="M96 719q0 150 56.5 280.5t155 229t229.5 155t280 56.5q150 0 281 -56.5t228 -155t153.5 -229.5t56.5 -280q0 -150 -56.5 -281t-153.5 -228t-228 -153.5t-281 -56.5t-280.5 56.5t-229 153.5t-155 228t-56.5 281zM565 676q0 -112 73 -190q74 -80 177 -80h174 q33 0 55.5 22.5t22.5 56t-21.5 55t-54.5 21.5h-172q-39 0 -68.5 34t-29.5 81v43h268q33 0 55.5 22.5t22.5 56.5t-22.5 56.5t-55.5 22.5h-268v77q0 33 -21.5 55.5t-55.5 22.5t-56.5 -22.5t-22.5 -55.5v-278z" />
<glyph unicode="u" d="M96 717q0 150 56.5 280.5t153.5 228t228.5 154t280.5 56.5q150 0 281 -56.5t229 -154t154.5 -228.5t56.5 -280q0 -150 -56.5 -281t-154.5 -228t-229 -153.5t-281 -56.5t-281 56.5t-228 153.5t-153.5 228t-56.5 281zM492 604q0 -88 61 -150q61 -63 149 -63h246 q88 0 150.5 62.5t62.5 150.5v180l-6 13q-15 12 -43 12q-49 0 -59 9t-11.5 23.5t-6.5 44.5q-6 36 -17.5 61.5t-31 45t-42.5 34.5q-50 34 -92 38h-150q-88 0 -149 -63q-61 -62 -61 -150v-248zM666 606q0 16 12 28.5t29 12.5h239q16 0 28.5 -12t12.5 -29q0 -16 -12 -28.5 t-29 -12.5h-239q-16 0 -28.5 12.5t-12.5 28.5zM666 850q0 16 12 28.5t29 12.5h116q16 0 28.5 -12.5t12.5 -28.5t-12 -28.5t-29 -12.5h-116q-16 0 -28.5 12.5t-12.5 28.5z" />
<glyph unicode="v" d="M96 719q0 150 56.5 280.5t153.5 228t228.5 154t280.5 56.5q150 0 281 -56.5t229 -154t154.5 -228.5t56.5 -280q0 -150 -56.5 -281t-154.5 -228t-229 -153.5t-281 -56.5t-281 56.5t-228 153.5t-153.5 228t-56.5 281zM420 885l33 -43q43 34 68 34q12 0 20 -8 q13 -17 50 -135q69 -228 81 -255t29.5 -47.5t38.5 -34.5q23 -14 48 -14q27 0 54 17q180 120 300 330q48 83 61 161q6 34 6 60q0 34 -10 56q-17 38 -51 54q-27 12 -60 12q-9 0 -18 -1q-44 -4 -84 -27q-95 -56 -112 -157q31 19 55 19q26 0 43 -22q13 -16 13 -40 q-1 -27 -19 -64q-34 -68 -64 -105.5t-46 -37.5t-30.5 41t-29.5 98.5t-21.5 107.5t-18.5 93q-26 90 -82 90q-8 0 -16 -2q-99 -20 -238 -180z" />
<glyph unicode="w" d="M96 713q0 150 56.5 280.5t153.5 228t228.5 154t280.5 56.5q150 0 281 -56.5t229 -154t154.5 -228.5t56.5 -280q0 -150 -56.5 -281t-154.5 -228.5t-229 -153.5t-281 -56t-281 56t-228 153.5t-153.5 228.5t-56.5 281zM469 695q0 -86 54.5 -169.5t142.5 -124.5l-166 453 q-31 -73 -31 -159zM526 903h47t36 1t30.5 2t16.5 -12t-13 -15q-6 -2 -12 -2t-12.5 -1.5t-14.5 -1.5l125 -374l76 227l-53 147l-37 5q-14 2 -13.5 15t16 12l31 -2t31.5 -1h51.5t37.5 1t30.5 2t16.5 -12q2 -17 -25 -17q-6 0 -12.5 -1.5t-14.5 -1.5l125 -370l35 114 q27 79 27 112q0 49 -21.5 83.5t-32 53t-10.5 40.5q0 23 16.5 42.5t40.5 19.5h7q-103 90 -236 90q-92 0 -167 -42t-122 -114zM719 381q43 -14 101 -14t112 20l-4 4l-107 291zM989 414q78 45 126 123.5t48 175.5q0 86 -43 166q2 -8 2 -17v-18q0 -65 -26 -125z" />
<glyph unicode="x" d="M96 719q0 150 56.5 280.5t155 229t229.5 155t280 56.5q150 0 281 -56.5t228 -155t153.5 -229.5t56.5 -280q0 -150 -56.5 -281t-153.5 -228t-228 -153.5t-281 -56.5t-280.5 56.5t-229 153.5t-155 228t-56.5 281zM518 637h51v-250h47v250h52v41h-150v-41zM565 1059l64 -195 v-127h55v133l64 189h-56l-35 -129h-2l-37 129h-53zM686 422q0 -37 30 -37t50 27v-25h43v215h-43v-164q-14 -14 -23.5 -14t-11.5 2l-2 12v164h-43v-180zM752 797q0 -29 18 -47t51 -19q33 0 51 19q18 14 19 47v123q0 27 -18.5 44t-49.5 17t-53 -16q-18 -18 -18 -45v-123z M801 793v129q0 8 6 12q2 6 12 6q23 0 23 -18v-129q0 -8 -6 -15q-7 -6 -15 -6q-20 0 -20 21zM842 387h43v16q18 -18 41 -18q37 0 39 47v119q0 53 -41 53q-21 0 -39 -18v92h-43v-291zM885 428v135l8 6l10 2q15 0 17 -22v-111q0 -20 -15 -20q-13 2 -20 10zM930 776 q0 -43 35 -43q32 0 55 31v-27h49v238h-49v-180q-14 -19 -27.5 -19t-13.5 17v182h-49v-199zM987 449q0 -29 17 -50q18 -18 45 -18q65 0 65 68v10h-45v-10q0 -20 -4 -25q-4 -4 -15 -4t-14.5 5t-3.5 24v40h82v56q0 63 -61 63q-29 0 -47 -18t-19 -45v-96zM1032 524v21q0 16 4 20 t15 4q10 0 14 -4q4 -8 4 -20v-21h-37z" />
<glyph unicode="y" d="M96 717q0 150 56.5 280.5t155 229t229.5 155t280 56.5q150 0 281 -56.5t228 -155t153.5 -229.5t56.5 -280q0 -150 -56.5 -281t-153.5 -228t-228 -153.5t-281 -56.5t-280.5 56.5t-229 153.5t-155 228t-56.5 281zM340 944h125q57 -45 210 -245q32 -42 34 -50q4 -16 4 -64 q0 -87 -6 -95.5t-23.5 -11.5t-37 -4t-36.5 -1h-26l-6 -41l194 4h129l90 -2l2 43h-69l-64 2q-4 16 -4 67v103q13 31 90 94q140 115 162 119q2 0 22 4h68l10 17h2l27 39h-2l2 4h-373l15 -60h102l-170 -153q-12 18 -33.5 44.5t-45 57.5t-49.5 64.5t-46 64.5h127v45l2 8 q0 2 -2 2v5h-424v-60zM1159 438l29 -4l33 -2l8 62l-33 2l-37 4v-62zM1167 807l2 -266l58 -4l65 258q-83 0 -125 12z" />
<glyph unicode="z" horiz-adv-x="1628" d="M96 719q0 150 56.5 280.5t153.5 228t228.5 154t280.5 56.5q150 0 281 -56.5t228 -154t153.5 -228.5t56.5 -280q0 -150 -56.5 -281t-153.5 -228t-228 -153.5t-281 -56.5t-281 56.5t-228 153.5t-153.5 228t-56.5 281zM549 473l35 -90q92 25 135 65q29 26 84 95q8 8 13 8 t13 -4q82 -35 123 -78t56 -72l71 43q-53 105 -134 166q-32 25 -53.5 35t-29.5 18t-3 24t22 15h14q26 -4 54 -4h19q38 2 105 37l-29 64q-50 -20 -94 -20q-36 0 -69 13q-8 23 -9 33v6q-19 3 -49 19q-47 -25 -68.5 -69t-25.5 -101.5t-10 -63.5q-49 -105 -170 -139zM723 969 q0 -39 26.5 -65.5t65.5 -26.5t65.5 26.5t26.5 65.5t-26.5 65.5t-65.5 26.5t-65.5 -26.5t-26.5 -65.5z" />
<glyph unicode="&#xa0;" d="M96 729q0 150 56.5 281t155 228t229 153.5t280.5 56.5t281 -56.5t228 -153.5t153.5 -228t56.5 -281t-56.5 -281t-153.5 -229t-228 -154.5t-281 -56.5t-280.5 56.5t-229 154.5t-155 229.5t-56.5 280.5z" />
<glyph unicode="&#xad;" d="M96 719q0 150 56.5 280.5t153.5 228t228 154t281 56.5t281 -56.5t229 -154t154.5 -228.5t56.5 -280q0 -150 -56.5 -281t-154.5 -229t-229 -154.5t-281 -56.5t-281 56.5t-228 154.5t-153.5 229t-56.5 281zM501 824.5q-9 -19.5 15 -48.5h2l119 -145l-62 -176 q-10 -35 4.5 -48.5t47.5 3.5l188 94l189 -94q35 -16 49 -3t2 48l-60 176l119 145h2q23 29 13.5 48.5t-46.5 19.5h-155l-76 157q-16 35 -36.5 35t-37.5 -35l-73 -157h-158q-37 0 -46 -19.5z" />
<glyph unicode="&#x2000;" horiz-adv-x="724" />
<glyph unicode="&#x2001;" horiz-adv-x="1448" />
<glyph unicode="&#x2002;" horiz-adv-x="724" />
<glyph unicode="&#x2003;" horiz-adv-x="1448" />
<glyph unicode="&#x2004;" horiz-adv-x="482" />
<glyph unicode="&#x2005;" horiz-adv-x="362" />
<glyph unicode="&#x2006;" horiz-adv-x="241" />
<glyph unicode="&#x2007;" horiz-adv-x="241" />
<glyph unicode="&#x2008;" horiz-adv-x="181" />
<glyph unicode="&#x2009;" horiz-adv-x="289" />
<glyph unicode="&#x200a;" horiz-adv-x="80" />
<glyph unicode="&#x2010;" d="M96 719q0 150 56.5 280.5t153.5 228t228 154t281 56.5t281 -56.5t229 -154t154.5 -228.5t56.5 -280q0 -150 -56.5 -281t-154.5 -229t-229 -154.5t-281 -56.5t-281 56.5t-228 154.5t-153.5 229t-56.5 281zM501 824.5q-9 -19.5 15 -48.5h2l119 -145l-62 -176 q-10 -35 4.5 -48.5t47.5 3.5l188 94l189 -94q35 -16 49 -3t2 48l-60 176l119 145h2q23 29 13.5 48.5t-46.5 19.5h-155l-76 157q-16 35 -36.5 35t-37.5 -35l-73 -157h-158q-37 0 -46 -19.5z" />
<glyph unicode="&#x2011;" d="M96 719q0 150 56.5 280.5t153.5 228t228 154t281 56.5t281 -56.5t229 -154t154.5 -228.5t56.5 -280q0 -150 -56.5 -281t-154.5 -229t-229 -154.5t-281 -56.5t-281 56.5t-228 154.5t-153.5 229t-56.5 281zM501 824.5q-9 -19.5 15 -48.5h2l119 -145l-62 -176 q-10 -35 4.5 -48.5t47.5 3.5l188 94l189 -94q35 -16 49 -3t2 48l-60 176l119 145h2q23 29 13.5 48.5t-46.5 19.5h-155l-76 157q-16 35 -36.5 35t-37.5 -35l-73 -157h-158q-37 0 -46 -19.5z" />
<glyph unicode="&#x2012;" d="M96 719q0 150 56.5 280.5t153.5 228t228 154t281 56.5t281 -56.5t229 -154t154.5 -228.5t56.5 -280q0 -150 -56.5 -281t-154.5 -229t-229 -154.5t-281 -56.5t-281 56.5t-228 154.5t-153.5 229t-56.5 281zM501 824.5q-9 -19.5 15 -48.5h2l119 -145l-62 -176 q-10 -35 4.5 -48.5t47.5 3.5l188 94l189 -94q35 -16 49 -3t2 48l-60 176l119 145h2q23 29 13.5 48.5t-46.5 19.5h-155l-76 157q-16 35 -36.5 35t-37.5 -35l-73 -157h-158q-37 0 -46 -19.5z" />
<glyph unicode="&#x2013;" horiz-adv-x="1214" d="M96 719q0 150 40 280.5t109 228t162.5 154t199.5 56.5q107 0 200 -56.5t163 -154t110 -228.5t40 -280q0 -150 -40 -281t-110 -229t-163 -154.5t-200 -56.5q-106 0 -199.5 56.5t-162.5 154.5t-109 229t-40 281zM384 824.5q-6 -19.5 11 -48.5h1l85 -145l-44 -176 q-7 -35 3 -48.5t34 3.5l133 94l135 -94q25 -16 34.5 -3t1.5 48l-43 176l85 145h1q17 29 10 48.5t-33 19.5h-110l-54 157q-12 35 -26.5 35t-26.5 -35l-52 -157h-112q-27 0 -33 -19.5z" />
<glyph unicode="&#x2014;" horiz-adv-x="2238" d="M96 719q0 150 80.5 280.5t218.5 228t324 154t400 56.5q213 0 399.5 -56.5t325.5 -154t219.5 -228.5t80.5 -280q0 -150 -80.5 -281t-219.5 -229t-325.5 -154.5t-399.5 -56.5q-214 0 -400 56.5t-324 154.5t-218.5 229t-80.5 281zM672 824.5q-13 -19.5 21 -48.5h3l169 -145 l-88 -176q-14 -35 6.5 -48.5t67.5 3.5l268 94l268 -94q50 -16 70 -3t3 48l-85 176l169 145h3q32 29 18.5 48.5t-65.5 19.5h-221l-108 157q-23 35 -52 35t-53 -35l-104 -157h-225q-52 0 -65 -19.5z" />
<glyph unicode="&#x202f;" horiz-adv-x="289" />
<glyph unicode="&#x205f;" horiz-adv-x="362" />
<glyph unicode="&#xe000;" horiz-adv-x="1443" d="M0 0v1444h1444v-1444h-1444z" />
</font>
</defs>
</svg>
